<?xml version="1.0" encoding="UTF-8"?> <svg xmlns="http://www.w3.org/2000/svg" viewBox="0 0 394.81 107.19"> <defs> <style>.cls-1{fill:#e50914;stroke:#e50914;stroke-miterlimit:10;stroke-width:2px;}</style> </defs> <title>Ресурс 2red</title> <g id="Слой_2" data-name="Слой 2"> <g id="Слой_1-2" data-name="Слой 1"> <path class="cls-1" d="M27.9,106.19H1V1.6H47.62q17.63,0,27.79,9.11T85.72,34.32q0,14.49-10.31,23.76-10.17,9.11-27.79,9.11H27.9Zm0-81.88V45.08H45.68q5.82,0,9.33-2.77a9.23,9.23,0,0,0,3.52-7.69A9.11,9.11,0,0,0,55.09,27q-3.44-2.68-9.41-2.69Z"></path> <path class="cls-1" d="M108.58,106.19H80.19L124.12,1H150L193.9,106.19H165.06l-8.81-22.11H117.4Zm28.24-71.57L125.91,62.56h21.82Z"></path> <path class="cls-1" d="M232.3,106.19H205.4V1.6h49.16q17.32,0,27.34,9.11,10.32,9,10.31,23.16a30.68,30.68,0,0,1-5.38,17.93,31.58,31.58,0,0,1-14.94,11.51l31.68,42.88H272.64l-29.59-39.9H232.3Zm0-81.88v20h20.77q5.52,0,8.74-2.61A8.84,8.84,0,0,0,265,34.47a9.28,9.28,0,0,0-3.21-7.4q-3.22-2.76-8.74-2.76Z"></path> <path class="cls-1" d="M362.29,106.19h-26.9v-81H304V1.6h89.8V25.21H362.29Z"></path> </g> </g> </svg> 